<?xml version="1.0" standalone="no"?>
<!DOCTYPE svg PUBLIC "-//W3C//DTD SVG 20010904//EN"
 "http://www.w3.org/TR/2001/REC-SVG-20010904/DTD/svg10.dtd">
<svg version="1.0" xmlns="http://www.w3.org/2000/svg"
 width="512.000000pt" height="512.000000pt" viewBox="0 0 512.000000 512.000000"
 preserveAspectRatio="xMidYMid meet">
<metadata>
Created by potrace 1.14, written by Peter Selinger 2001-2017
</metadata>
<g transform="translate(0.000000,512.000000) scale(0.100000,-0.100000)"
fill="#000000" stroke="none">
<path d="M3250 4985 c-7 -8 -9 -15 -5 -15 4 0 1 -8 -6 -17 -12 -15 -12 -16 6
-10 19 7 19 6 2 -7 -14 -10 -15 -15 -5 -19 8 -4 7 -6 -4 -6 -10 -1 -18 -6 -18
-12 0 -5 5 -7 12 -3 7 5 8 3 2 -7 -4 -8 -7 -25 -5 -38 2 -16 -1 -21 -9 -16 -9
6 -9 2 0 -15 11 -20 10 -22 -3 -17 -13 5 -15 2 -7 -18 8 -20 7 -23 -8 -18 -15
6 -15 5 -3 -10 7 -10 9 -17 3 -17 -12 0 -11 -18 2 -39 7 -11 5 -13 -6 -9 -8 4
-15 0 -15 -8 0 -7 4 -11 8 -8 4 2 1 -9 -7 -26 -9 -16 -13 -34 -10 -39 3 -5 -1
-14 -8 -21 -8 -6 -13 -20 -11 -31 2 -10 -1 -19 -7 -19 -7 0 -6 -5 1 -14 8 -10
9 -16 1 -21 -6 -3 -8 -10 -5 -15 2 -4 -5 -21 -17 -36 -19 -25 -20 -27 -3 -14
19 15 19 14 2 -12 -9 -15 -14 -33 -11 -41 3 -8 1 -18 -5 -22 -6 -3 -9 0 -5 8
3 8 2 17 -3 20 -5 3 -9 -2 -10 -11 -2 -59 -8 -90 -15 -86 -8 5 -10 -4 -11 -43
0 -12 -3 -21 -6 -18 -4 2 -13 -5 -20 -17 -10 -16 -10 -19 1 -12 11 6 11 5 0
-9 -8 -9 -10 -22 -6 -29 6 -11 5 -11 -8 0 -14 11 -16 9 -14 -16 2 -23 -2 -28
-13 -24 -10 4 -13 1 -8 -12 5 -11 3 -15 -5 -10 -8 5 -9 2 -5 -9 3 -9 1 -19 -5
-23 -7 -5 -8 -2 -4 7 4 8 0 5 -8 -6 -9 -11 -14 -25 -11 -33 3 -7 0 -10 -6 -7
-6 4 -13 -2 -16 -14 -3 -11 -9 -18 -14 -15 -5 3 -9 -1 -9 -8 0 -8 -8 -21 -17
-29 -10 -9 -23 -25 -30 -35 -12 -18 -12 -18 -7 1 3 13 0 10 -11 -7 -8 -15 -24
-32 -35 -38 -12 -7 -18 -16 -13 -23 4 -8 2 -8 -9 1 -13 10 -18 10 -24 1 -5 -8
-3 -9 6 -4 9 6 11 4 6 -4 -5 -7 -15 -10 -23 -7 -8 3 -11 1 -8 -4 3 -6 1 -10
-5 -10 -6 0 -8 -4 -5 -10 3 -6 -1 -7 -9 -4 -11 4 -16 0 -16 -12 0 -16 -2 -17
-10 -4 -6 10 -10 11 -10 3 0 -7 -6 -12 -12 -10 -7 1 -12 -3 -11 -10 1 -6 -4
-14 -13 -17 -10 -4 -13 -2 -8 7 6 9 5 9 -8 0 -8 -7 -18 -10 -22 -6 -4 4 -4 0
-1 -9 5 -13 0 -16 -24 -14 -17 1 -27 -2 -24 -8 4 -5 -3 -7 -15 -4 -23 6 -31
-7 -9 -16 6 -3 0 -3 -15 -1 -25 3 -32 -3 -30 -25 0 -3 -8 -6 -18 -6 -10 0 -16
4 -14 8 3 4 -6 4 -19 -1 -14 -6 -28 -7 -32 -3 -3 3 -3 -2 1 -12 5 -13 4 -17
-4 -12 -6 3 -13 2 -16 -2 -3 -5 -16 -7 -30 -5 -13 3 -27 0 -30 -6 -10 -15 -29
-14 -21 2 4 6 1 5 -7 -3 -7 -9 -23 -15 -35 -14 -13 1 -23 -2 -23 -7 0 -5 -7
-5 -17 -2 -10 4 -14 2 -10 -4 4 -6 0 -14 -9 -17 -24 -9 -31 -7 -14 4 11 8 9 9
-10 6 -14 -3 -27 -5 -30 -6 -3 -2 -8 -2 -12 -1 -5 0 -8 -4 -8 -9 0 -7 -7 -7
-21 0 -11 7 -23 9 -27 6 -3 -3 0 -6 6 -6 7 0 12 -4 12 -10 0 -5 -7 -6 -17 -3
-9 4 -14 2 -11 -3 4 -5 -15 -9 -43 -8 -27 1 -46 -2 -43 -7 3 -5 0 -9 -5 -9 -6
0 -11 4 -11 9 0 14 -31 6 -44 -11 -7 -10 -18 -13 -26 -9 -8 4 -21 7 -27 5 -7
-1 -18 -2 -25 -3 -9 -1 -9 -4 -1 -12 6 -6 10 -17 9 -23 -2 -6 -1 -8 1 -3 3 4
11 7 19 7 10 0 12 -5 8 -12 -5 -8 0 -7 11 2 11 9 16 10 11 3 -7 -13 1 -17 42
-15 12 1 22 -3 22 -9 0 -5 9 -4 21 3 18 11 23 10 41 -12 17 -19 20 -21 14 -6
-7 19 -6 19 13 2 13 -12 21 -14 26 -6 5 8 14 6 31 -5 17 -11 24 -12 24 -3 0 6
9 2 20 -10 24 -26 39 -30 19 -5 -13 14 -11 14 19 -1 19 -10 40 -15 48 -12 8 3
14 -1 14 -8 0 -9 10 -12 30 -10 17 2 30 0 30 -4 0 -4 9 -8 21 -9 12 -1 27 -10
35 -20 13 -17 14 -17 8 2 -6 16 -5 18 7 8 7 -7 21 -13 31 -13 10 0 18 -5 18
-11 0 -5 4 -8 9 -4 5 3 12 1 16 -4 3 -6 12 -8 20 -4 9 3 15 -1 15 -8 0 -12 2
-12 9 -1 6 10 10 8 14 -8 5 -18 9 -20 26 -10 16 8 21 8 21 -1 0 -6 7 -9 14 -6
11 4 13 1 9 -10 -4 -11 -3 -14 5 -9 7 4 15 0 18 -9 6 -13 8 -14 15 -3 7 11 9
11 9 -1 0 -8 6 -11 16 -7 9 3 12 2 9 -5 -4 -6 2 -13 14 -16 11 -3 18 -9 15
-14 -3 -5 5 -9 16 -9 16 0 20 -5 16 -15 -3 -8 -1 -15 3 -15 5 0 12 6 14 13 3
7 6 4 6 -6 1 -10 5 -16 10 -12 5 3 16 -2 24 -10 9 -8 21 -15 27 -15 6 0 8 -4
5 -10 -3 -5 -1 -10 5 -10 7 0 10 -6 7 -14 -4 -9 0 -12 11 -9 12 2 21 -6 30
-26 8 -17 17 -30 20 -30 21 3 31 -3 26 -15 -3 -7 7 -21 21 -30 23 -15 24 -20
13 -34 -11 -13 -11 -15 4 -9 18 6 35 -24 23 -43 -3 -5 -2 -10 4 -10 5 0 12 6
15 13 3 6 4 -1 2 -17 -3 -21 1 -30 14 -33 10 -3 17 -12 16 -21 -2 -10 4 -22
12 -28 17 -12 28 -59 12 -49 -16 10 -11 -1 7 -16 14 -12 16 -12 8 0 -5 10 -4
12 4 7 9 -6 9 -11 -1 -24 -8 -9 -8 -13 -2 -9 14 8 24 -13 20 -39 -2 -11 1 -22
6 -25 5 -3 10 -12 11 -20 2 -8 6 -20 11 -28 5 -8 3 -16 -5 -22 -10 -6 -8 -9
10 -9 20 0 21 -2 11 -15 -7 -8 -8 -15 -3 -15 5 0 10 -12 11 -27 1 -16 10 -34
20 -42 13 -11 14 -13 1 -8 -9 3 -16 0 -16 -9 0 -7 4 -11 8 -9 4 3 10 -2 13
-11 8 -22 8 -26 -4 -19 -6 3 -7 -1 -4 -9 3 -9 11 -16 17 -16 7 0 7 -4 -1 -12
-18 -18 -14 -32 5 -17 10 8 14 9 10 2 -4 -6 -3 -15 3 -18 8 -5 8 -11 0 -20 -8
-9 -8 -15 0 -20 6 -4 7 -12 0 -24 -6 -12 -5 -22 2 -29 8 -8 8 -15 -2 -27 -7
-8 -9 -15 -5 -15 4 0 14 8 21 18 12 15 13 13 4 -12 -9 -25 -8 -27 6 -22 13 5
14 4 6 -7 -9 -10 -7 -19 5 -38 16 -23 16 -23 0 -10 -19 15 -22 9 -7 -19 7 -13
7 -21 0 -25 -6 -4 -8 -11 -4 -16 4 -7 10 -6 18 0 10 8 12 2 11 -25 -1 -46 10
-53 20 -11 12 52 12 66 2 60 -6 -4 -7 -1 -1 8 10 16 11 20 13 57 1 19 4 23 10
13 5 -8 8 5 7 38 -1 33 3 52 12 56 10 4 10 9 1 27 -10 20 -10 21 2 11 12 -9
14 -4 13 35 -1 37 3 51 20 65 11 10 15 16 8 12 -13 -7 -13 20 1 42 4 6 1 14
-5 16 -10 4 -10 6 0 6 6 1 12 8 12 17 0 8 4 13 8 10 5 -3 9 1 9 9 0 8 -4 12
-9 9 -13 -9 -9 4 8 20 8 9 10 16 4 16 -7 0 -8 6 -1 19 6 10 7 22 3 27 -4 5 0
3 9 -4 15 -11 16 -8 13 28 -3 30 -1 39 8 34 7 -5 9 0 6 14 -4 13 -1 20 5 19 6
-1 11 12 11 30 0 24 3 30 12 22 9 -8 11 -5 7 12 -4 15 -3 20 5 15 9 -5 9 0 2
20 -10 25 -9 26 6 13 16 -13 17 -12 12 9 -4 14 -2 20 5 15 6 -4 8 0 4 10 -3 9
0 18 9 21 9 3 12 10 9 16 -3 5 -1 10 5 10 7 0 10 7 6 15 -3 8 0 14 7 12 7 -1
11 4 9 11 -1 6 5 12 14 12 14 0 14 3 4 15 -11 13 -10 14 5 9 15 -6 17 -3 13
14 -3 12 -3 20 1 19 10 -3 81 71 81 83 0 9 14 14 33 11 4 0 7 6 7 14 0 8 5 15
11 15 5 0 7 5 4 10 -8 13 17 8 28 -5 4 -6 7 -1 5 10 -2 12 2 19 10 17 6 -1 12
2 12 8 0 5 7 10 15 10 8 0 15 5 15 11 0 5 -5 7 -12 3 -7 -4 -8 -3 -4 5 6 9 11
9 21 1 10 -8 18 -5 31 12 11 13 27 22 37 20 9 -2 17 2 17 8 0 6 -5 8 -12 4 -6
-4 -8 -3 -4 4 3 6 15 9 26 7 11 -2 20 2 20 8 0 8 3 7 9 -2 7 -11 10 -9 15 7 5
14 14 19 31 17 19 -2 23 1 15 10 -8 9 -1 12 25 10 28 -1 35 2 30 13 -4 12 -3
12 9 3 10 -9 15 -8 19 2 3 9 16 13 31 12 14 -2 26 1 26 7 0 5 6 8 12 6 7 -3
19 2 27 9 11 12 15 12 22 1 6 -8 9 -9 9 -1 0 6 11 10 25 8 14 -1 25 2 25 6 0
5 -5 9 -12 9 -6 0 -8 3 -5 6 4 4 13 1 22 -6 14 -11 19 -7 16 13 -2 12 17 8 22
-5 4 -10 6 -10 6 -1 1 7 8 10 18 6 12 -5 14 -3 8 8 -7 12 -6 12 7 1 13 -10 18
-10 24 -1 5 8 3 9 -6 4 -8 -5 -11 -4 -7 2 3 5 20 8 38 5 25 -4 30 -2 24 9 -7
12 -6 12 7 1 13 -10 17 -10 20 0 4 10 9 10 23 -2 15 -12 17 -12 10 -1 -6 11
-4 13 8 8 10 -4 16 -2 14 5 -1 8 21 12 65 12 36 1 64 4 61 9 -2 4 1 7 7 7 6 0
9 4 6 9 -4 5 4 7 16 3 17 -4 20 -2 15 12 -4 10 -7 20 -7 23 0 3 -7 0 -15 -7
-12 -10 -15 -10 -15 0 0 10 -3 10 -15 0 -12 -10 -15 -9 -15 6 0 11 -4 15 -8 9
-4 -5 -15 -11 -24 -13 -13 -2 -16 2 -11 15 5 15 3 16 -8 6 -15 -15 -33 -17
-24 -4 3 6 -7 9 -22 8 -16 -2 -33 4 -39 12 -10 13 -14 13 -30 1 -11 -9 -15
-10 -10 -2 5 9 -2 12 -26 12 -19 0 -39 5 -46 12 -7 7 -12 8 -12 2 0 -6 -7 -11
-15 -11 -8 0 -12 4 -9 9 3 4 0 8 -6 8 -6 0 -9 4 -6 8 3 5 -9 8 -27 7 -40 -2
-100 14 -109 29 -6 8 -8 8 -8 -1 0 -7 -7 -10 -15 -7 -8 4 -12 11 -8 18 4 6 -1
5 -11 -3 -9 -8 -16 -10 -15 -5 1 5 1 15 0 23 -1 11 -4 11 -14 -3 -12 -17 -15
-17 -29 -2 -9 9 -22 16 -28 16 -6 0 -9 4 -6 8 3 5 -8 9 -25 9 -17 0 -36 8 -45
19 -8 10 -13 13 -9 7 7 -15 -11 -18 -20 -3 -4 6 -11 8 -16 5 -5 -3 -6 1 -3 9
4 11 -1 14 -19 12 -26 -3 -91 39 -82 54 3 4 -3 7 -12 6 -10 0 -18 5 -19 12 -3
23 -4 24 -17 14 -10 -8 -17 -6 -27 8 -7 10 -17 17 -22 14 -4 -3 -5 3 -1 12 4
12 3 15 -5 10 -7 -4 -12 -2 -12 4 0 6 -5 8 -12 4 -8 -5 -9 -2 -4 11 5 15 4 16
-9 5 -13 -11 -14 -10 -9 4 4 11 1 16 -12 17 -12 0 -14 2 -6 6 10 4 7 9 -8 17
-13 6 -21 13 -19 16 6 8 -25 39 -33 33 -5 -2 -8 0 -8 6 0 5 6 12 13 14 6 3 2
6 -10 6 -12 1 -25 6 -29 13 -5 8 -2 9 9 5 26 -10 20 1 -10 18 -16 9 -20 14
-10 11 9 -3 17 -1 17 4 0 6 -6 10 -14 10 -8 0 -18 5 -22 12 -4 6 -3 8 3 5 5
-3 10 0 10 8 0 8 -4 12 -8 9 -5 -2 -15 9 -24 27 -9 17 -12 28 -6 25 6 -4 11
-2 11 3 0 6 -10 11 -22 11 -12 0 -18 3 -15 6 3 4 1 16 -5 28 -11 20 -10 20 8
6 10 -8 6 -1 -9 16 -17 20 -25 37 -21 47 4 10 0 19 -9 23 -9 3 -14 15 -12 31
1 15 -4 27 -13 31 -13 5 -12 7 4 13 17 7 17 8 2 8 -15 1 -24 22 -15 34 1 2 -5
12 -13 22 -8 11 -10 16 -3 12 19 -12 6 36 -14 51 -13 9 -14 12 -2 12 8 0 10 3
4 8 -16 11 -19 46 -3 36 15 -9 -9 25 -27 38 -6 5 -5 8 3 8 7 0 10 5 7 10 -4 6
-10 8 -15 5 -5 -3 -5 8 0 25 5 19 5 30 -1 30 -6 0 -7 5 -3 12 5 8 2 9 -11 4
-15 -5 -16 -4 -5 9 7 8 8 15 3 15 -5 0 -8 18 -7 40 1 24 -2 37 -8 34 -6 -4 -6
1 1 14 8 15 6 23 -9 37 -15 14 -17 21 -9 32 9 10 8 13 -1 13 -10 0 -10 3 0 15
10 12 10 15 0 15 -10 0 -10 3 0 16 8 8 9 14 4 13 -21 -4 -28 2 -14 11 8 5 10
10 4 10 -6 0 -17 -7 -24 -15z m1200 -1395 c0 -5 -2 -10 -4 -10 -3 0 -8 5 -11
10 -3 6 -1 10 4 10 6 0 11 -4 11 -10z m-2485 -20 c3 -5 -1 -10 -10 -10 -9 0
-13 5 -10 10 3 6 8 10 10 10 2 0 7 -4 10 -10z m1856 -303 c-10 -9 -11 -8 -5 6
3 10 9 15 12 12 3 -3 0 -11 -7 -18z"/>
<path d="M3855 3801 c-3 -5 -2 -12 3 -15 5 -3 9 1 9 9 0 17 -3 19 -12 6z"/>
<path d="M4666 3546 c7 -19 20 -21 30 -3 4 6 4 9 -1 5 -4 -4 -14 -3 -22 4 -11
8 -12 7 -7 -6z"/>
<path d="M1833 3535 c0 -8 4 -12 9 -9 5 3 6 10 3 15 -9 13 -12 11 -12 -6z"/>
<path d="M692 3113 c0 -10 0 -22 -2 -28 -5 -21 0 -46 9 -41 11 7 8 -21 -4 -31
-4 -4 -5 -2 0 6 5 9 4 12 -3 7 -6 -4 -9 -12 -6 -19 12 -34 10 -88 -5 -98 -14
-9 -14 -10 1 -5 9 2 19 -2 22 -10 3 -9 1 -12 -4 -9 -14 8 -13 -21 2 -48 10
-20 10 -21 -5 -9 -14 12 -15 11 -7 -17 5 -17 6 -31 2 -31 -4 0 0 -5 8 -10 11
-7 11 -10 2 -10 -7 0 -12 -8 -10 -17 1 -10 -1 -24 -6 -32 -6 -9 -5 -12 1 -8 6
4 13 0 17 -8 3 -8 0 -17 -6 -21 -7 -5 -8 -2 -3 6 5 9 4 11 -3 6 -8 -5 -9 -13
-3 -24 4 -9 6 -23 4 -30 -3 -7 0 -19 6 -26 8 -10 7 -17 -4 -26 -12 -10 -13
-16 -4 -26 6 -8 8 -14 3 -14 -5 0 -2 -5 6 -10 10 -6 11 -10 3 -10 -14 0 -14
-48 -1 -67 6 -7 3 -15 -9 -22 -10 -6 -12 -11 -5 -11 6 0 12 -5 12 -11 0 -5 -5
-7 -11 -4 -5 4 -3 -10 5 -30 14 -32 14 -36 1 -25 -12 10 -13 7 -5 -19 5 -17 6
-31 2 -31 -4 0 0 -5 8 -10 10 -6 11 -10 3 -10 -8 0 -12 -12 -10 -32 2 -18 -1
-41 -6 -52 -6 -12 -5 -16 1 -12 6 3 8 -21 7 -64 -2 -48 1 -70 9 -70 8 0 8 -2
0 -8 -16 -10 -16 -75 -1 -65 7 3 3 -4 -8 -17 -11 -13 -14 -20 -7 -16 6 4 12 4
13 -1 0 -4 2 -16 4 -26 2 -9 -1 -15 -6 -11 -5 3 -6 10 -3 16 4 7 2 8 -4 4 -8
-5 -8 -15 -2 -32 13 -32 13 -47 1 -39 -10 5 -8 -18 5 -57 4 -15 3 -18 -6 -13
-7 4 -4 -5 6 -21 17 -27 17 -28 1 -15 -16 13 -17 12 -7 -13 13 -34 13 -49 1
-41 -10 5 -8 -18 5 -57 5 -16 3 -19 -7 -13 -8 5 -6 -1 4 -12 12 -14 15 -23 7
-28 -6 -4 -8 -16 -4 -27 5 -16 3 -19 -7 -13 -8 5 -6 -1 4 -12 12 -14 15 -23 7
-28 -6 -4 -8 -16 -4 -27 4 -15 3 -18 -6 -13 -7 4 -4 -5 6 -21 17 -27 17 -28 1
-15 -16 13 -17 12 -7 -13 13 -34 13 -49 1 -41 -10 5 -8 -18 5 -57 5 -16 3 -19
-7 -12 -11 6 -12 5 -3 -7 6 -8 10 -40 9 -71 -1 -36 2 -58 9 -58 7 0 7 -3 0 -8
-15 -9 -15 -92 0 -111 9 -12 8 -13 -3 -6 -11 6 -13 2 -9 -19 3 -15 1 -26 -6
-26 -7 0 -7 -3 -1 -8 6 -4 10 -18 10 -32 -1 -14 4 -28 10 -32 7 -5 6 -8 -1 -8
-7 0 -11 -21 -11 -55 0 -32 3 -52 9 -49 5 3 4 -3 -3 -14 -10 -16 -10 -24 -1
-35 10 -11 9 -17 -3 -27 -12 -10 -13 -16 -4 -26 6 -8 8 -14 3 -14 -4 0 1 -6
11 -14 11 -8 24 -12 29 -8 16 10 76 10 82 1 3 -5 11 -6 17 -2 19 12 66 12 73
1 4 -7 9 -6 14 2 5 9 13 9 27 1 11 -5 23 -7 27 -4 10 10 76 12 82 2 3 -5 11
-6 17 -2 19 12 66 12 73 1 4 -7 9 -6 14 2 5 9 13 9 27 1 11 -5 23 -7 27 -4 10
10 76 12 82 2 3 -5 11 -6 17 -2 19 12 66 12 73 1 4 -7 9 -6 14 2 5 9 13 9 27
1 11 -5 23 -7 27 -4 10 10 76 12 82 2 3 -5 11 -6 17 -2 19 12 66 12 73 1 4 -7
9 -6 14 2 5 9 13 9 27 1 11 -5 23 -7 27 -4 10 10 76 12 82 2 3 -5 11 -6 17 -2
18 11 61 12 75 1 6 -6 12 -6 12 -1 0 5 34 8 75 8 41 -1 75 3 75 8 0 4 5 5 10
2 6 -4 7 -12 4 -18 -4 -7 -3 -8 2 -4 5 5 10 13 10 18 3 22 5 23 12 11 10 -16
45 -4 35 12 -4 6 1 5 10 -3 9 -7 17 -10 17 -5 0 5 11 10 25 10 16 1 23 -2 19
-10 -3 -6 2 -2 10 8 9 11 24 21 33 22 60 9 74 12 86 23 8 6 17 8 20 4 4 -3 7
-1 7 5 0 6 7 9 17 5 11 -4 14 -3 9 5 -5 8 1 12 18 12 14 0 26 5 26 11 0 5 5 7
10 4 6 -3 10 2 10 12 0 15 2 16 10 3 6 -10 10 -11 10 -2 0 6 5 12 11 12 6 0
20 11 31 25 10 13 25 24 31 22 7 -1 11 4 9 12 -2 9 4 12 17 8 14 -3 18 -1 14
9 -3 8 2 17 11 20 9 3 14 10 11 14 -3 5 0 12 6 16 8 4 9 3 5 -4 -4 -7 -3 -12
3 -12 5 0 13 9 16 20 4 11 11 18 16 15 5 -3 6 2 2 11 -5 13 -3 15 7 9 10 -6
12 -4 7 9 -4 9 -3 15 2 12 5 -3 11 4 14 15 4 14 10 18 19 13 10 -6 9 -3 -1 10
-12 15 -12 17 0 14 8 -2 13 3 11 11 -2 9 3 11 13 7 11 -4 14 -2 8 7 -14 22
-12 39 3 33 8 -3 12 -2 9 3 -3 5 -1 12 4 16 6 3 7 13 4 22 -4 10 -2 14 4 10
15 -9 21 10 18 55 -1 21 2 38 7 38 4 0 7 6 6 13 -2 6 3 11 10 9 8 -1 11 2 7 8
-3 6 -10 8 -15 5 -11 -7 -7 22 5 32 4 4 5 2 0 -6 -6 -10 -4 -12 5 -6 10 6 9
11 -5 22 -17 12 -14 17 7 14 4 0 3 10 -2 24 -7 18 -6 25 3 25 8 0 8 3 -2 9
-11 7 -11 9 0 14 12 5 12 7 0 15 -9 6 -10 12 -2 16 6 4 7 15 2 29 -5 14 -5 30
0 40 9 16 2 22 -23 18 -5 0 -8 4 -8 10 0 6 6 9 13 6 8 -3 14 1 14 9 0 7 -4 11
-9 8 -4 -3 -8 7 -8 21 0 18 -4 24 -12 19 -9 -5 -9 -2 1 9 9 11 10 17 2 17 -6
0 -11 6 -11 14 0 8 -6 17 -12 19 -9 4 -9 6 1 6 11 1 10 5 -5 17 -10 8 -12 13
-4 9 8 -4 6 1 -4 9 -11 9 -17 16 -13 16 4 0 3 9 -3 21 -7 13 -17 18 -27 15
-13 -5 -14 -4 -3 9 10 12 9 16 -4 21 -9 3 -14 10 -11 15 3 4 -4 6 -15 4 -11
-2 -18 0 -15 5 3 6 1 18 -4 27 -8 14 -11 15 -11 3 -1 -9 -5 -6 -10 8 -5 12
-16 22 -25 22 -8 0 -15 5 -15 10 0 6 -7 10 -15 10 -9 0 -18 7 -21 15 -4 9 -11
15 -18 14 -19 -3 -46 13 -39 23 4 7 -4 9 -20 6 -16 -3 -25 -1 -24 6 1 6 -6 10
-15 8 -13 -2 -11 4 10 26 17 18 31 25 39 19 8 -6 10 -2 6 13 -4 14 -1 20 8 18
8 -2 13 2 12 8 -1 7 11 17 27 24 27 11 34 21 32 41 -1 3 10 12 23 19 14 7 26
17 26 22 1 4 3 13 4 18 1 6 3 15 4 20 0 6 8 10 17 10 13 0 14 3 5 14 -9 11 -9
16 1 23 16 10 47 49 32 40 -8 -4 -11 2 -10 17 1 16 5 21 12 15 7 -6 9 1 6 23
-3 17 -1 28 4 25 5 -3 9 8 10 24 1 16 -3 29 -8 29 -5 0 -8 8 -6 18 2 10 -2 16
-10 14 -8 -1 -11 2 -7 8 4 7 13 6 28 -1 l22 -12 -20 23 c-11 13 -14 20 -7 16
6 -4 12 -3 12 3 0 5 -5 11 -11 13 -9 3 -8 11 1 28 13 24 12 24 -5 10 -17 -14
-18 -13 -11 5 8 23 9 25 7 43 0 7 -5 11 -9 8 -5 -3 -9 1 -9 9 0 8 5 11 11 8 6
-4 5 1 -3 10 -11 14 -11 17 0 17 8 0 5 6 -7 14 -11 8 -19 27 -20 43 0 20 -5
28 -17 27 -9 -1 -17 2 -17 7 0 5 7 9 16 9 13 0 11 5 -7 21 -13 11 -17 18 -9
14 8 -4 3 3 -12 15 -18 14 -25 28 -23 42 3 11 2 18 -2 15 -7 -8 -33 18 -33 33
0 7 -7 9 -16 6 -8 -3 -12 -2 -9 4 3 6 1 10 -4 10 -6 0 -11 7 -11 17 0 9 -3 13
-7 10 -3 -4 -15 5 -26 20 -13 20 -17 22 -13 8 5 -17 3 -16 -15 5 -11 14 -18
19 -14 11 5 -9 -1 -8 -19 4 -14 9 -23 21 -20 26 3 5 -2 6 -10 3 -9 -3 -16 -1
-16 5 0 6 -8 11 -18 11 -10 0 -24 6 -31 13 -9 7 -12 8 -7 0 4 -8 0 -8 -19 0
-14 7 -25 16 -25 20 0 5 5 5 12 1 7 -4 8 -3 4 5 -4 6 -13 8 -19 4 -19 -12 -40
-13 -54 -1 -7 6 -13 7 -13 4 0 -4 -7 -1 -15 8 -9 8 -22 13 -30 9 -9 -3 -21 0
-29 6 -7 6 -15 8 -19 5 -13 -13 -56 -10 -62 4 -3 8 -8 12 -12 9 -3 -4 -13 -1
-21 6 -13 10 -14 9 -8 -1 10 -16 -25 -13 -36 3 -5 6 -8 4 -8 -5 0 -13 -1 -13
-10 0 -8 12 -10 12 -10 1 0 -11 -3 -11 -15 -1 -12 10 -15 10 -15 -1 0 -10 -2
-11 -8 -2 -5 8 -13 9 -22 3 -8 -5 -21 -5 -32 1 -13 7 -18 6 -18 -2 0 -8 -4 -8
-12 -2 -17 13 -48 12 -48 -1 0 -6 -4 -5 -9 2 -4 8 -12 14 -16 14 -4 0 -12 -6
-16 -14 -8 -11 -10 -11 -18 0 -11 19 -15 19 -34 3 -13 -10 -17 -10 -17 -1 0
10 -3 10 -15 0 -11 -9 -15 -9 -15 -1 0 8 -5 9 -19 2 -10 -6 -21 -8 -24 -4 -12
11 -57 11 -57 0 0 -8 -3 -8 -8 -2 -9 13 -32 18 -32 7 0 -5 -7 -9 -15 -9 -8 0
-15 4 -15 9 0 5 -8 4 -18 -1 -13 -7 -22 -7 -29 0 -8 8 -13 7 -17 0 -5 -8 -13
-8 -27 -1 -14 8 -19 7 -19 -1 0 -8 -4 -9 -13 0 -10 8 -17 7 -25 -1 -9 -9 -12
-9 -12 0 0 9 -5 10 -18 3 -13 -7 -22 -7 -29 0 -8 8 -13 7 -17 0 -5 -8 -13 -8
-27 -1 -14 8 -19 7 -19 -1 0 -8 -4 -8 -12 -2 -17 13 -48 12 -48 -1 0 -6 -4 -5
-9 2 -4 8 -12 14 -16 14 -4 0 -12 -6 -16 -14 -8 -11 -10 -11 -18 0 -11 19 -15
19 -34 3 -13 -10 -17 -10 -17 -1 0 10 -3 10 -15 0 -11 -9 -15 -9 -15 -1 0 8
-5 9 -19 2 -10 -6 -21 -8 -24 -4 -12 11 -57 11 -57 0 0 -8 -3 -8 -8 -2 -9 13
-32 18 -32 7 0 -5 -7 -9 -15 -9 -8 0 -15 4 -15 9 0 5 -8 4 -18 -1 -13 -7 -23
-6 -30 1 -9 9 -12 9 -12 -1 0 -11 -3 -11 -14 -1 -12 9 -15 8 -14 -7z m762
-545 c-4 -7 -3 -8 5 -4 20 13 82 15 74 3 -3 -6 -1 -7 6 -3 20 13 82 15 74 3
-3 -6 -1 -7 6 -3 20 13 82 15 74 3 -3 -6 -1 -7 6 -3 19 12 82 15 75 4 -4 -6 3
-5 15 1 17 9 26 9 41 -2 11 -8 17 -17 13 -21 -4 -4 1 -4 11 0 15 6 17 4 11 -7
-7 -12 -6 -12 11 1 10 8 16 11 12 6 -6 -8 -1 -16 30 -51 9 -10 10 -15 2 -15
-6 0 -8 -5 -5 -10 4 -6 10 -8 15 -5 4 3 6 -4 3 -15 -3 -11 0 -20 6 -20 6 0 11
-5 11 -11 0 -5 -4 -8 -8 -5 -10 6 -9 -25 1 -42 5 -7 -1 -21 -12 -34 -12 -12
-18 -24 -15 -27 4 -3 9 0 11 7 3 6 10 12 16 12 6 0 1 -10 -11 -23 -12 -13 -19
-27 -15 -32 5 -4 -1 -5 -11 -1 -17 6 -17 5 -5 -11 8 -9 9 -14 3 -10 -7 4 -15
0 -18 -9 -4 -9 -13 -14 -21 -10 -8 3 -14 2 -14 -2 3 -19 -3 -22 -23 -11 -18
10 -20 9 -15 -5 5 -13 3 -15 -11 -8 -9 5 -38 8 -64 7 -30 -2 -48 2 -48 9 0 6
-4 5 -9 -3 -8 -13 -12 -13 -27 0 -10 8 -15 9 -11 3 4 -7 -13 -11 -53 -10 -38
0 -57 4 -52 11 4 7 1 6 -9 -1 -18 -13 -57 -16 -64 -3 -4 5 -12 6 -18 2 -19
-12 -37 -12 -37 -2 0 6 -4 8 -8 5 -4 -2 -8 4 -8 14 0 10 4 16 8 14 4 -3 8 0 8
5 0 6 -5 11 -12 11 -9 0 -9 3 -1 11 6 6 9 18 6 27 -4 10 -2 13 5 8 7 -4 12 -2
12 3 0 11 -15 15 -35 11 -5 -1 1 10 15 25 14 15 19 25 11 23 -7 -2 -16 3 -19
11 -2 8 0 11 6 7 6 -3 14 -1 18 5 4 8 3 9 -4 5 -7 -4 -12 -2 -12 4 0 6 -6 8
-12 5 -7 -4 -4 1 6 9 14 11 15 16 6 16 -9 0 -7 5 6 15 10 8 15 15 9 14 -23 -3
-36 2 -30 11 4 6 12 7 18 3 7 -3 3 4 -8 17 -11 13 -14 20 -7 16 7 -4 12 -1 12
9 0 10 -5 14 -12 10 -7 -4 -4 1 6 9 15 12 16 16 5 17 -8 1 0 5 16 9 44 11 47
11 39 -2z m966 -544 c0 -8 -19 -13 -24 -6 -3 5 1 9 9 9 8 0 15 -2 15 -3z
m-916 -329 c23 -1 44 4 49 9 4 7 10 8 15 1 9 -12 102 -15 102 -3 0 5 5 6 12 2
17 -11 68 -13 68 -2 0 5 8 5 18 1 9 -5 41 -8 70 -7 42 1 52 -2 53 -15 0 -10 2
-11 6 -3 2 6 9 12 14 12 6 0 8 -4 5 -9 -3 -5 1 -12 10 -15 10 -4 13 -2 9 7 -4
6 1 3 9 -7 9 -11 16 -17 16 -13 0 4 8 -1 18 -10 11 -10 17 -21 15 -25 -2 -5 3
-8 13 -8 14 0 14 -3 4 -15 -11 -13 -10 -14 5 -9 15 6 17 3 13 -14 -4 -15 -2
-22 9 -22 12 0 12 -2 -1 -16 -20 -19 -20 -25 -3 -18 8 3 14 -2 14 -10 0 -8 -5
-12 -11 -9 -6 3 -5 0 2 -8 14 -16 16 -33 2 -24 -5 3 -10 2 -10 -4 0 -5 6 -12
13 -14 9 -4 9 -7 -1 -14 -7 -5 -13 -27 -14 -48 -1 -28 -6 -39 -21 -43 -14 -4
-16 -7 -5 -13 10 -7 11 -9 0 -9 -7 0 -10 -5 -6 -12 5 -8 0 -9 -14 -6 -12 4
-20 2 -17 -2 3 -5 0 -12 -6 -15 -5 -4 -8 -14 -4 -22 4 -13 3 -14 -9 -4 -10 9
-16 9 -21 1 -4 -6 -14 -9 -22 -5 -12 4 -13 2 -5 -8 10 -11 4 -13 -33 -12 -25
0 -45 -4 -45 -10 0 -6 -3 -7 -8 0 -9 12 -142 13 -135 1 4 -5 0 -5 -8 0 -21 13
-39 14 -39 1 0 -8 -3 -8 -8 -2 -4 6 -14 10 -22 10 -8 0 -18 -4 -22 -10 -5 -6
-8 -6 -8 1 0 7 -26 9 -76 7 -57 -3 -79 0 -90 12 -12 11 -12 15 -2 15 8 0 9 3
2 8 -12 8 -27 43 -16 39 4 -1 7 3 7 8 0 6 -4 9 -8 7 -5 -1 -6 2 -2 8 3 6 11 8
16 5 5 -4 9 -1 9 4 0 6 -5 11 -11 11 -8 0 -7 6 2 17 10 11 10 14 1 9 -8 -5
-11 -1 -8 16 2 13 -1 32 -7 43 -9 18 -8 18 5 7 13 -10 18 -10 24 -1 4 7 3 9
-3 6 -6 -4 -13 0 -17 8 -3 8 0 15 7 16 9 0 8 2 -1 6 -10 4 -9 9 5 20 10 8 13
12 8 9 -6 -2 -17 -1 -25 5 -8 5 -10 9 -4 9 6 0 10 12 9 28 -1 15 3 33 9 41 8
11 8 13 -1 7 -7 -4 -13 -2 -13 3 0 6 6 11 13 11 9 0 9 2 -1 8 -6 5 -11 20 -10
34 1 15 6 24 10 22 4 -3 8 -1 8 5 0 5 -6 12 -12 15 -7 4 2 4 20 1 23 -3 31 -1
26 7 -5 7 -3 8 6 3 7 -5 32 -9 54 -10z"/>
<path d="M1411 2514 c0 -11 3 -14 6 -6 3 7 2 16 -1 19 -3 4 -6 -2 -5 -13z"/>
<path d="M1406 1643 c-6 -14 -5 -15 5 -6 7 7 10 15 7 18 -3 3 -9 -2 -12 -12z"/>
<path d="M1405 1411 c-3 -5 -2 -12 3 -15 5 -3 9 1 9 9 0 17 -3 19 -12 6z"/>
<path d="M4145 2980 c-4 -6 -11 -8 -16 -5 -5 3 -6 -1 -2 -10 3 -10 0 -21 -7
-25 -16 -10 -20 -80 -6 -99 8 -11 8 -13 -1 -7 -8 4 -13 2 -13 -4 0 -6 -4 -8
-10 -5 -6 3 -7 -1 -4 -9 4 -10 1 -16 -7 -16 -11 0 -11 -2 0 -9 12 -8 12 -12 2
-24 -8 -10 -8 -17 -2 -21 14 -9 1 -38 -14 -32 -8 3 -11 -7 -10 -30 1 -23 -2
-31 -10 -24 -7 6 -12 -1 -13 -23 -1 -18 -10 -37 -18 -44 -9 -7 -13 -17 -8 -24
4 -8 3 -10 -4 -5 -7 4 -12 1 -12 -8 0 -8 -11 -21 -24 -28 -14 -7 -25 -16 -25
-20 -1 -5 -1 -12 -1 -18 0 -5 -6 -7 -14 -4 -8 3 -19 -3 -26 -16 -6 -11 -15
-18 -21 -15 -5 4 -9 -1 -9 -11 0 -14 -2 -15 -17 -3 -11 10 -14 10 -9 2 5 -9 0
-13 -16 -13 -19 0 -20 -2 -8 -11 12 -9 11 -10 -7 -6 -13 3 -23 0 -23 -6 0 -6
-3 -7 -7 -4 -3 4 -12 -1 -20 -11 -12 -16 -13 -15 -6 3 6 17 4 18 -9 8 -8 -7
-19 -9 -23 -5 -5 4 -5 2 -2 -4 8 -14 -20 -27 -28 -14 -7 11 -35 2 -35 -12 0
-6 8 -4 18 3 15 12 16 12 4 -2 -8 -11 -26 -16 -52 -15 -22 1 -40 -1 -40 -6 0
-4 -7 -4 -17 -1 -12 5 -14 3 -8 -7 6 -10 4 -11 -6 -4 -24 14 -38 13 -32 -3 5
-13 1 -15 -21 -11 -14 3 -29 1 -32 -4 -3 -4 -2 -8 3 -7 21 4 34 -2 27 -12 -4
-7 1 -7 16 1 14 7 25 8 29 3 3 -6 26 -10 49 -9 24 1 48 -4 54 -11 5 -6 17 -12
26 -12 36 -1 64 -8 70 -17 4 -5 15 -10 25 -11 36 -1 41 -5 22 -13 -19 -8 -18
-9 5 -11 14 -1 31 -2 38 -2 6 1 12 -7 12 -16 0 -14 2 -14 10 -1 8 13 10 12 10
-3 0 -10 5 -15 10 -12 6 3 10 2 10 -3 0 -5 14 -15 30 -22 17 -7 30 -18 30 -26
0 -7 5 -16 12 -20 7 -5 8 -2 3 7 -5 8 -4 11 1 6 5 -5 9 -16 9 -25 0 -9 5 -16
12 -15 8 2 10 -4 6 -14 -5 -12 -3 -14 7 -8 10 6 12 4 7 -8 -4 -12 -2 -14 10
-10 11 4 14 2 9 -5 -4 -7 -2 -12 6 -12 9 0 9 -3 -2 -10 -10 -6 -11 -10 -2 -10
6 0 12 -5 12 -11 0 -5 -5 -7 -12 -3 -7 4 -8 3 -4 -5 4 -6 12 -8 18 -5 7 5 9 0
6 -14 -3 -12 1 -29 9 -39 8 -10 11 -12 7 -4 -4 9 -3 12 4 7 6 -3 9 -15 7 -26
-2 -11 2 -20 8 -20 7 0 6 -4 -3 -10 -10 -7 -11 -10 -2 -10 8 0 11 -9 8 -25 -3
-16 1 -28 12 -35 9 -5 13 -10 8 -10 -5 0 -2 -8 5 -17 8 -9 9 -14 4 -11 -7 4
-9 -6 -7 -28 2 -19 8 -34 13 -34 5 0 9 -5 9 -11 0 -5 -5 -7 -12 -3 -7 4 -8 3
-4 -5 4 -6 12 -8 18 -5 6 4 8 -1 4 -14 -4 -11 -2 -23 3 -27 7 -4 8 1 4 11 -4
12 -3 15 5 10 8 -5 10 -1 5 10 -5 13 -3 15 8 9 11 -6 12 -5 2 5 -9 10 -10 17
-2 27 9 10 8 13 -1 13 -9 0 -9 4 -2 13 15 18 15 29 0 38 -10 7 -8 9 6 9 13 0
16 -5 12 -17 -4 -10 -3 -14 1 -9 11 11 10 60 -2 68 -6 5 -5 8 3 8 6 0 12 9 12
21 0 11 4 18 9 14 5 -3 13 0 17 6 4 7 3 9 -4 5 -6 -3 -13 -2 -17 4 -3 6 1 13
9 16 9 3 13 10 11 15 -3 5 2 20 11 34 16 24 16 25 -2 19 -18 -5 -18 -5 -1 6 9
6 14 16 11 22 -5 7 -1 9 9 5 11 -4 14 -2 10 9 -3 8 0 20 6 28 6 7 8 16 4 19
-3 4 -1 7 6 7 7 0 10 4 6 9 -3 6 3 8 14 6 14 -3 18 1 14 15 -5 20 28 45 42 32
5 -4 6 0 3 8 -6 16 16 43 26 33 3 -4 6 -1 6 6 0 7 4 10 9 6 5 -3 12 -1 16 5 4
6 11 8 16 5 5 -4 9 1 9 10 0 11 6 15 18 11 9 -3 28 1 42 9 14 8 21 15 15 15
-5 0 -3 5 5 10 20 13 33 13 25 0 -3 -6 1 -7 9 -4 9 3 13 11 9 18 -4 6 2 4 12
-4 15 -12 17 -12 10 -1 -6 11 -4 13 8 8 10 -3 17 -3 17 2 0 5 11 7 25 6 14 -2
23 0 20 4 -2 5 7 13 21 20 24 10 25 10 19 -11 -7 -21 -6 -22 7 -5 7 10 22 19
33 21 11 2 20 8 20 14 0 6 3 13 8 16 4 3 5 3 2 -1 -3 -3 1 -13 8 -21 9 -13 9
-14 0 -8 -7 4 -13 2 -13 -3 0 -19 19 -12 31 10 6 12 7 19 1 15 -5 -3 -12 0
-15 7 -3 9 -21 13 -51 13 -25 -1 -46 3 -46 7 0 4 -9 3 -19 -2 -20 -11 -48 8
-33 24 4 5 -1 5 -10 2 -10 -4 -18 -2 -18 5 0 7 -5 6 -15 -2 -10 -9 -15 -9 -15
-1 0 6 -3 10 -7 10 -20 -3 -34 2 -28 11 3 6 1 10 -4 10 -6 0 -11 -6 -11 -12 0
-10 -3 -9 -9 1 -5 8 -14 10 -21 6 -9 -6 -11 -4 -5 5 6 10 4 12 -9 7 -9 -4 -15
-3 -13 1 3 4 -1 13 -9 20 -8 7 -14 8 -14 2 0 -5 -5 -10 -11 -10 -5 0 -7 5 -4
10 3 6 -1 10 -9 10 -9 0 -16 5 -16 10 0 6 -6 9 -12 8 -7 -2 -12 3 -10 11 2 9
-3 11 -13 7 -10 -4 -19 2 -25 18 -4 13 -16 26 -24 29 -9 4 -16 13 -16 22 0 8
-3 15 -7 15 -5 0 -17 12 -27 27 -11 14 -14 23 -8 19 7 -4 12 -2 12 3 0 6 -7
11 -16 11 -14 0 -14 3 -4 16 8 8 9 14 4 13 -21 -4 -28 2 -14 11 13 8 12 10 -4
10 -16 0 -17 2 -5 17 11 13 11 15 1 9 -9 -6 -12 -3 -10 10 2 11 -2 18 -9 17
-7 -2 -13 1 -13 6 0 5 6 12 13 14 6 3 3 6 -7 6 -20 1 -20 1 0 16 10 9 13 14 5
13 -7 -2 -16 3 -19 11 -3 9 0 11 8 6 9 -6 9 -3 1 12 -6 11 -7 23 -4 27 3 3 -1
6 -9 6 -9 0 -19 7 -22 16 -5 14 -4 15 8 5 12 -10 13 -8 9 11 -3 13 -10 29 -16
36 -6 8 -5 12 4 13 8 0 5 4 -6 9 -11 5 -15 9 -10 9 6 1 11 10 11 21 0 23 -2
24 -11 10z m345 -744 c0 -2 -7 -7 -16 -10 -8 -3 -12 -2 -9 4 6 10 25 14 25 6z"/>
<path d="M3626 2282 c-3 -5 1 -9 9 -9 8 0 12 4 9 9 -3 4 -7 8 -9 8 -2 0 -6 -4
-9 -8z"/>
<path d="M2495 860 c-3 -5 -1 -10 4 -10 6 0 11 5 11 10 0 6 -2 10 -4 10 -3 0
-8 -4 -11 -10z"/>
</g>
</svg>
